<?xml version="1.0" encoding="UTF-8"?>
<svg version="1.1" xmlns="http://www.w3.org/2000/svg" width="665" height="375">
<path d="M0 0 C219.45 0 438.9 0 665 0 C665 78.54 665 157.08 665 238 C663.35 238 661.7 238 660 238 C659.67 236.68 659.34 235.36 659 234 C657.85660156 233.79503906 656.71320312 233.59007812 655.53515625 233.37890625 C654.04423324 233.1069769 652.55334984 232.83483026 651.0625 232.5625 C649.93038086 232.36043945 649.93038086 232.36043945 648.77539062 232.15429688 C643.11328125 231.11328125 643.11328125 231.11328125 642 230 C639.48226171 229.88857359 636.98759372 229.83772238 634.46875 229.82421875 C632.86880007 229.80388499 631.26886504 229.78235116 629.66894531 229.75976562 C628.82513306 229.74856689 627.9813208 229.73736816 627.11193848 229.72583008 C612.56175044 229.51230673 598.65880097 228.54784019 584.3203125 225.91015625 C578.88542909 224.92120468 573.55400138 224.55607407 568.04223633 224.36547852 C559.80726413 224.04369061 551.65170273 223.01223251 543.47509766 222.01538086 C535.29438947 221.04463555 527.52253661 220.17471636 519.4375 222.125 C514.22659486 223.15404429 510.98352977 222.83603728 506 221 C505.319375 220.443125 504.63875 219.88625 503.9375 219.3125 C501.95004297 217.70963841 501.95004297 217.70963841 498.8125 217.9375 C494.43730997 219.15681525 491.60168668 221.09941955 488.015625 223.8203125 C487.35046875 224.20960938 486.6853125 224.59890625 486 225 C485.01 224.67 484.02 224.34 483 224 C483.33 220.7 483.66 217.4 484 214 C479.85619434 213.46213033 475.70977984 212.94783159 471.5625 212.4375 C469.81549805 212.21030273 469.81549805 212.21030273 468.03320312 211.97851562 C461.39908426 211.1749463 455.60281165 210.97914904 449 212 C442.25386189 212.61788953 438.69508328 211.68505389 433 208 C430.1846089 207.0849624 427.7436396 206.90755079 424.796875 207.0078125 C397.50546539 207.64717859 397.50546539 207.64717859 388 201 C386.2958946 199.37163262 384.61974559 197.71230248 383 196 C382.34 196.33 381.68 196.66 381 197 C379.88882812 196.69537842 378.77765625 196.39075684 377.6328125 196.0769043 C372.06984791 194.59085023 366.59983231 194.73258101 360.875 194.76953125 C359.70796036 194.76944565 358.54092072 194.76936005 357.33851624 194.76927185 C353.5588905 194.77254547 349.77956534 194.79138461 346 194.8125 C343.38468461 194.82204071 340.76936885 194.83148041 338.15405273 194.84082031 C330.76915013 194.87316889 323.3846483 194.93180752 316 195 C314.65267792 195.0109671 314.65267792 195.0109671 313.27813721 195.02215576 C295.95175467 195.16848677 278.80534979 196.32027224 261.5625 197.9375 C260.64792023 198.02286011 259.73334045 198.10822021 258.79104614 198.19616699 C256.17364202 198.44440916 253.55742085 198.70239614 250.94140625 198.96484375 C249.78566101 199.07586678 249.78566101 199.07586678 248.60656738 199.18913269 C238.22483633 199.82421218 238.22483633 199.82421218 229.9375 205.125 C229.298125 206.07375 228.65875 207.0225 228 208 C226.93845703 207.51466797 226.93845703 207.51466797 225.85546875 207.01953125 C222.82421221 205.93723582 220.51838575 205.76712331 217.3125 205.6875 C210.65548086 205.29278507 204.68508068 203.70870597 198.35668945 201.72729492 C190.90375813 199.45432099 185.11777974 199.33638372 178.0078125 202.72265625 C175.08038523 204.58504675 173.70613233 207.03006594 172 210 C165.9548421 216.0451579 154.72874712 214.16130986 146.88671875 214.16796875 C145.5082038 214.17118843 144.12968919 214.17455302 142.75117493 214.17805481 C139.86902068 214.18402126 136.98689631 214.18589729 134.10473633 214.18530273 C130.43680033 214.18520129 126.76905868 214.19884607 123.10116863 214.21607494 C120.25532678 214.22726984 117.4095308 214.22921965 114.5636692 214.22869301 C112.56201869 214.23042522 110.56038249 214.2412174 108.5587616 214.25224304 C89.75689474 214.20551579 89.75689474 214.20551579 82 208 C81.5570459 207.50741699 81.1140918 207.01483398 80.65771484 206.50732422 C76.05710004 201.69833476 71.84250489 201.17361875 65.33789062 200.921875 C64.17451172 200.90640625 63.01113281 200.8909375 61.8125 200.875 C60.0500293 200.79378906 60.0500293 200.79378906 58.25195312 200.7109375 C52.06096587 200.22817378 52.06096587 200.22817378 46.76049805 202.83642578 C44.87859887 205.07930125 44.87859887 205.07930125 43 208 C34.04166204 209.66841529 25.41363239 206.7879492 17 204 C17 205.65 17 207.3 17 209 C11.55299453 209.11116338 6.36437132 209.00581962 1 208 C0.67 207.67 0.34 207.34 0 207 C0 138.69 0 70.38 0 0 Z " fill="#332218" transform="translate(0,0)"/>
<path d="M0 0 C0 0.33 0 0.66 0 1 C-2.64 1.33 -5.28 1.66 -8 2 C-8 2.66 -8 3.32 -8 4 C-5.69 4.33 -3.38 4.66 -1 5 C1.97229017 15.36882625 0.00882764 29.62176952 -5 39 C-9.3422226 46.30846817 -14.85917024 53.12181265 -21 59 C-21.66 59 -22.32 59 -23 59 C-23 59.66 -23 60.32 -23 61 C-23.62390625 61.22429687 -24.2478125 61.44859375 -24.890625 61.6796875 C-27.72331159 63.45273948 -27.93255443 64.93696227 -28.75 68.125 C-29.11351562 69.49011719 -29.11351562 69.49011719 -29.484375 70.8828125 C-29.65453125 71.58148438 -29.8246875 72.28015625 -30 73 C-13.16081455 66.2558426 -1.8015161 54.51656925 7 39 C8 42 8 42 6.77734375 44.453125 C4.88589798 47.32844384 2.97558401 50.18171214 1 53 C0.55527344 53.63550781 0.11054687 54.27101562 -0.34765625 54.92578125 C-8.02648262 64.76501137 -20.25746432 71.95310099 -31 78 C-31.33 78 -31.66 78 -32 78 C-31.7685743 69.76124505 -31.54766176 63.02820453 -27 56 C-26.01 55.505 -26.01 55.505 -25 55 C-24.64080332 53.33871537 -24.31088368 51.67099977 -24 50 C-23.690625 49.41992188 -23.38125 48.83984375 -23.0625 48.2421875 C-18.86701579 39.38848186 -18.52084426 27.90227738 -17.734375 18.25952148 C-17.39715241 14.45184895 -17.15826313 12.23739469 -15 9 C-15.66 9 -16.32 9 -17 9 C-13.97187726 1.8062871 -7.40531808 -0.7713873 0 0 Z " fill="#39251A" transform="translate(517,145)"/>
<path d="M0 0 C4.18381014 -0.41017747 6.29049065 -0.5160068 9.75 2 C15.79973811 10.06631748 16.24219131 19.25413574 15 29 C10.93490486 44.97808228 -1.56157379 57.56208161 -14.8125 66.5625 C-15.78231812 67.22584351 -15.78231812 67.22584351 -16.77172852 67.90258789 C-20.2067813 70.15187353 -21.78999685 71 -26 71 C-25.71788123 69.3733152 -25.42397625 67.74867104 -25.125 66.125 C-24.96257812 65.22007812 -24.80015625 64.31515625 -24.6328125 63.3828125 C-24 61 -24 61 -22 59 C-21.01 59 -20.02 59 -19 59 C-19 58.34 -19 57.68 -19 57 C-17.6796875 55.7734375 -17.6796875 55.7734375 -15.875 54.375 C-11.84772243 51.02976137 -8.94004991 47.30827258 -6 43 C-5.54496094 42.34902344 -5.08992188 41.69804687 -4.62109375 41.02734375 C0.94344408 32.67223173 2.50358936 24.49110217 2.875 14.5625 C2.93429687 13.57056641 2.99359375 12.57863281 3.0546875 11.55664062 C3.0959375 10.61111328 3.1371875 9.66558594 3.1796875 8.69140625 C3.21819824 7.83748291 3.25670898 6.98355957 3.29638672 6.10375977 C3.1985791 5.40951904 3.10077148 4.71527832 3 4 C2.01 3.34 1.02 2.68 0 2 C0 1.34 0 0.68 0 0 Z " fill="#090705" transform="translate(513,147)"/>
<path d="M0 0 C1.16015625 0.04640625 2.3203125 0.0928125 3.515625 0.140625 C4.68609375 0.17671875 5.8565625 0.2128125 7.0625 0.25 C8.40054687 0.31960937 8.40054687 0.31960937 9.765625 0.390625 C9.435625 1.050625 9.105625 1.710625 8.765625 2.390625 C9.8079126 2.41568115 10.8502002 2.4407373 11.92407227 2.46655273 C15.86604961 2.56216569 19.80791208 2.66198201 23.74975586 2.76293945 C25.44178544 2.80571683 27.1338426 2.84741938 28.82592773 2.88793945 C37.26935245 3.0908221 45.70925155 3.3192367 54.140625 3.828125 C55.29433594 3.89773437 56.44804687 3.96734375 57.63671875 4.0390625 C62.01255199 4.53072916 65.69208266 5.74691493 69.765625 7.390625 C69.765625 8.050625 69.765625 8.710625 69.765625 9.390625 C67.37028645 9.70733857 64.97444516 10.01899312 62.578125 10.328125 C61.92392578 10.41513672 61.26972656 10.50214844 60.59570312 10.59179688 C48.19034541 12.17921232 35.8571456 12.57707462 23.36645508 12.57592773 C20.73176585 12.57810137 18.09750559 12.59629093 15.46289062 12.61523438 C6.47871111 12.64548625 -2.40839614 12.35474749 -11.35546875 11.50390625 C-12.62717674 11.38730904 -12.62717674 11.38730904 -13.92457581 11.26835632 C-17.71192729 10.86777037 -20.01649974 10.53587517 -23.234375 8.390625 C-22.12578125 8.14828125 -21.0171875 7.9059375 -19.875 7.65625 C-18.41128257 7.31846906 -16.94775031 6.97988502 -15.484375 6.640625 C-14.38996094 6.40472656 -14.38996094 6.40472656 -13.2734375 6.1640625 C-8.74249455 5.11309649 -8.74249455 5.11309649 -5.140625 2.265625 C-3.234375 0.390625 -3.234375 0.390625 0 0 Z " fill="#CCAF83" transform="translate(413.234375,125.609375)"/>
<path d="M0 0 C41.38903609 -0.28161702 41.38903609 -0.28161702 52 4 C52 4.66 52 5.32 52 6 C49.60466145 6.31671357 47.20882016 6.62836812 44.8125 6.9375 C43.83120117 7.06801758 43.83120117 7.06801758 42.83007812 7.20117188 C29.1022114 8.95781833 15.50264714 9.12600965 1.6875 9.0625 C-0.22851445 9.05747279 -2.14453018 9.05291206 -4.06054688 9.04882812 C-8.70706353 9.03792424 -13.35351721 9.02072757 -18 9 C-18 8.67 -18 8.34 -18 8 C-14.37 8 -10.74 8 -7 8 C-7 7.34 -7 6.68 -7 6 C-5.88625 6.2475 -5.88625 6.2475 -4.75 6.5 C-1.80993422 7.11925696 -1.80993422 7.11925696 2 7 C2 6.34 2 5.68 2 5 C6.88165109 1.74556594 12.20869182 2.34403811 18 2 C12.06 1.67 6.12 1.34 0 1 C0 0.67 0 0.34 0 0 Z " fill="#97805C" transform="translate(431,129)"/>
<path d="M0 0 C0.66 0 1.32 0 2 0 C2 0.99 2 1.98 2 3 C3.32 3.33 4.64 3.66 6 4 C6 4.66 6 5.32 6 6 C6.66 6 7.32 6 8 6 C8.2475 6.78375 8.495 7.5675 8.75 8.375 C10.23563846 11.49484076 11.02689403 11.52437755 14 13 C15.703125 14.65625 15.703125 14.65625 17.25 16.5 C17.77078125 17.1084375 18.2915625 17.716875 18.828125 18.34375 C20 20 20 20 20 22 C20.66 22 21.32 22 22 22 C23.21875 23.49609375 23.21875 23.49609375 24.5 25.4375 C26.2865363 28.22531847 26.2865363 28.22531847 29 30 C25.69240426 23.38480852 21.04893179 18.36179295 16 13 C16.33 12.34 16.66 11.68 17 11 C18.67262717 12.61886415 20.33795537 14.2452729 22 15.875 C22.928125 16.77992187 23.85625 17.68484375 24.8125 18.6171875 C27 21 27 21 27 23 C27.99 23.33 28.98 23.66 30 24 C33 27.44444444 33 27.44444444 33 30 C33.99 30.33 34.98 30.66 36 31 C36 31.99 36 32.98 36 34 C36.99 33.67 37.98 33.34 39 33 C40 35 41 37 42 39 C42.53625 40.051875 43.0725 41.10375 43.625 42.1875 C45 45 45 45 46 48 C39.75118587 45.54510874 37.06575306 39.58405022 34 34 C33.505 34.99 33.505 34.99 33 36 C34.12148438 37.55847656 34.12148438 37.55847656 35.265625 39.1484375 C43.30323145 50.45679944 48.40491423 58.65407984 48.53125 72.8984375 C47.90731652 76.54110795 46.83239399 77.71834929 44 80 C44.23396484 78.98486328 44.23396484 78.98486328 44.47265625 77.94921875 C45.89615884 69.98814873 46.57902739 61.59873257 42.25 54.5 C41.18257129 52.98864066 40.10056777 51.48740099 39 50 C38.31423776 48.80240072 37.64545303 47.59479682 37 46.375 C33.92573286 41.1871742 30.51765208 36.51765208 26.25 32.25 C24.20204726 30.20204726 23.08088669 28.6530855 22 26 C21.34 26 20.68 26 20 26 C18.50370821 24.3214487 17.07707339 22.58041102 15.6875 20.8125 C13.29902741 17.7833166 10.9640178 14.96472235 8.20703125 12.26171875 C6 10 6 10 6 8 C5.01 7.67 4.02 7.34 3 7 C0.67734388 4.41927097 0 3.54823932 0 0 Z " fill="#8C7363" transform="translate(386,8)"/>
<path d="M0 0 C0.70189453 0.00451172 1.40378906 0.00902344 2.12695312 0.01367188 C3.85550538 0.02543073 5.58401365 0.04336546 7.3125 0.0625 C6.9825 1.0525 6.6525 2.0425 6.3125 3.0625 C7.3025 3.7225 8.2925 4.3825 9.3125 5.0625 C8.9825 6.3825 8.6525 7.7025 8.3125 9.0625 C7.6525 9.0625 6.9925 9.0625 6.3125 9.0625 C5.5607774 11.40119253 5.19278722 12.67941911 5.9375 15.0625 C6.3125 17.0625 6.3125 17.0625 5.125 19.25 C3.11195679 21.26304321 2.09750715 21.71437411 -0.6875 22.0625 C-2.6875 22.0625 -4.6875 22.0625 -6.6875 22.0625 C-7.196283 20.50283782 -7.69413469 18.93960759 -8.1875 17.375 C-8.4659375 16.50488281 -8.744375 15.63476562 -9.03125 14.73828125 C-9.69099378 12.04825454 -9.79721246 9.81902545 -9.6875 7.0625 C-9.52938612 4.00979537 -9.52938612 4.00979537 -10.6875 1.0625 C-7.06882441 -0.1437252 -3.76243749 -0.04566918 0 0 Z " fill="#3B3735" transform="translate(466.6875,137.9375)"/>
<path d="M0 0 C8.64908237 -0.27900266 17.00373196 0.09166164 25.57568359 1.34130859 C26.75602173 1.50518066 26.75602173 1.50518066 27.96020508 1.67236328 C33.01716265 2.50634265 36.26122154 3.9588251 40.32568359 7.09130859 C39.99568359 8.08130859 39.66568359 9.07130859 39.32568359 10.09130859 C38.68630859 9.78193359 38.04693359 9.47255859 37.38818359 9.15380859 C34.83749667 8.26887639 32.96936076 7.85694488 30.33349609 7.58740234 C29.53403564 7.50546631 28.7345752 7.42353027 27.91088867 7.33911133 C26.63121216 7.21644897 26.63121216 7.21644897 25.32568359 7.09130859 C24.47063232 7.00888916 23.61558105 6.92646973 22.73461914 6.84155273 C19.87024719 6.57626121 17.00490698 6.32985548 14.13818359 6.09130859 C12.55046143 5.95885742 12.55046143 5.95885742 10.93066406 5.82373047 C4.6635139 5.33403852 -1.5911204 4.99107117 -7.87353516 4.81005859 C-8.5558873 4.79023926 -9.23823944 4.77041992 -9.94126892 4.75 C-13.29784402 4.65666832 -16.65356495 4.58058427 -20.01098633 4.52099609 C-21.83593628 4.47845703 -21.83593628 4.47845703 -23.69775391 4.43505859 C-25.32076416 4.40702148 -25.32076416 4.40702148 -26.9765625 4.37841797 C-29.67431641 4.09130859 -29.67431641 4.09130859 -32.67431641 2.09130859 C-29.49526373 1.17145031 -26.53187164 0.90184987 -23.22900391 0.77490234 C-22.16109619 0.73268555 -21.09318848 0.69046875 -19.99291992 0.64697266 C-18.85653076 0.60797852 -17.7201416 0.56898437 -16.54931641 0.52880859 C-15.37876709 0.48852539 -14.20821777 0.44824219 -13.00219727 0.40673828 C-8.66829475 0.26519882 -4.33367855 0.14796383 0 0 Z " fill="#1A120A" transform="translate(458.67431640625,124.90869140625)"/>
<path d="M0 0 C1.09570312 0.19464844 2.19140625 0.38929687 3.3203125 0.58984375 C4.58488281 0.82380859 4.58488281 0.82380859 5.875 1.0625 C3.63869725 4.70482507 1.77215667 6.3741581 -2.27734375 7.49609375 C-3.86796826 7.85117922 -5.4633921 8.18531612 -7.0625 8.5 C-7.86107422 8.68498047 -8.65964844 8.86996094 -9.48242188 9.06054688 C-13.9783878 10.01039883 -16.94839816 10.43345983 -21.125 8.0625 C-21.125 7.4025 -21.125 6.7425 -21.125 6.0625 C-22.115 6.0625 -23.105 6.0625 -24.125 6.0625 C-24.455 10.3525 -24.785 14.6425 -25.125 19.0625 C-25.785 19.0625 -26.445 19.0625 -27.125 19.0625 C-27.52183933 8.94309701 -27.52183933 8.94309701 -25.125 5.0625 C-21.45444013 2.45000187 -18.37386788 1.54371176 -13.9375 0.9375 C-3.17858528 -0.57485053 -3.17858528 -0.57485053 0 0 Z " fill="#3D2C20" transform="translate(404.125,124.9375)"/>
<path d="M0 0 C0.66 1.32 1.32 2.64 2 4 C2.58007812 3.84402344 3.16015625 3.68804687 3.7578125 3.52734375 C8.52516927 2.33943802 12.12820288 1.75082125 17 3 C14.71560357 6.42659465 12.91004828 7.22311794 9.046875 8.44140625 C3.65678384 9.42958963 -1.74831177 9.15360169 -7.20703125 9.0078125 C-10.22551921 9.00159522 -12.18439759 9.19290172 -15 10 C-16.58211573 10.06548492 -18.16670081 10.08578381 -19.75 10.0625 C-20.54921875 10.05347656 -21.3484375 10.04445313 -22.171875 10.03515625 C-22.77515625 10.02355469 -23.3784375 10.01195313 -24 10 C-23.34 8.35 -22.68 6.7 -22 5 C-20.56274129 4.83126522 -19.12518162 4.66509263 -17.6875 4.5 C-16.88699219 4.4071875 -16.08648437 4.314375 -15.26171875 4.21875 C-13 4 -13 4 -10 4 C-9.21625 3.34 -8.4325 2.68 -7.625 2 C-4.71446029 -0.21755407 -3.5513315 -0.40586646 0 0 Z " fill="#553724" transform="translate(495,56)"/>
<path d="M0 0 C9.24 0 18.48 0 28 0 C28 0.99 28 1.98 28 3 C27.13375 3.4021875 27.13375 3.4021875 26.25 3.8125 C23.97214772 4.89082325 23.97214772 4.89082325 22.3125 6.5625 C15.32926988 10.90342683 3.83692873 9.11311241 -4.0625 9.0625 C-5.41861813 9.05747314 -6.77473808 9.05291234 -8.13085938 9.04882812 C-11.42061994 9.03712079 -14.71028594 9.02072211 -18 9 C-18 8.67 -18 8.34 -18 8 C-14.37 8 -10.74 8 -7 8 C-7 7.34 -7 6.68 -7 6 C-5.88625 6.2475 -5.88625 6.2475 -4.75 6.5 C-1.80993422 7.11925696 -1.80993422 7.11925696 2 7 C2 6.34 2 5.68 2 5 C6.88165109 1.74556594 12.20869182 2.34403811 18 2 C12.06 1.67 6.12 1.34 0 1 C0 0.67 0 0.34 0 0 Z " fill="#A08765" transform="translate(431,129)"/>
<path d="M0 0 C0 0.66 0 1.32 0 2 C-1.98 2.99 -1.98 2.99 -4 4 C-3.34 4.66 -2.68 5.32 -2 6 C-0.78656101 8.83135764 -0.96867041 9.90992742 -2 12.875 C-3.13698262 16.4280707 -2.79851125 18.40669937 -2 22 C-2 22.99 -2 23.98 -2 25 C-2.66 25.66 -3.32 26.32 -4 27 C-5.5625 25.8125 -5.5625 25.8125 -7 24 C-6.6875 21.3125 -6.6875 21.3125 -6 19 C-6.99 19 -7.98 19 -9 19 C-9.66 17.68 -10.32 16.36 -11 15 C-10.01 14.1028125 -10.01 14.1028125 -9 13.1875 C-6.6626154 11.12498166 -6.6626154 11.12498166 -7 8 C-8.32 7.34 -9.64 6.68 -11 6 C-10.01 5.01 -9.02 4.02 -8 3 C-19.52873105 3.69001543 -19.52873105 3.69001543 -31 5 C-29.22572046 2.74927955 -28.26436599 2.05354658 -25.41210938 1.47583008 C-24.39955078 1.40775146 -23.38699219 1.33967285 -22.34375 1.26953125 C-21.23902344 1.18896484 -20.13429688 1.10839844 -18.99609375 1.02539062 C-17.84238281 0.95513672 -16.68867188 0.88488281 -15.5 0.8125 C-13.76943359 0.6897168 -13.76943359 0.6897168 -12.00390625 0.56445312 C-3.87388393 0 -3.87388393 0 0 0 Z " fill="#2B2623" transform="translate(482,135)"/>
<path d="M0 0 C1.0528418 0.01353516 1.0528418 0.01353516 2.12695312 0.02734375 C3.85561525 0.05086296 5.58410145 0.08673287 7.3125 0.125 C6.9825 1.115 6.6525 2.105 6.3125 3.125 C6.9725 3.455 7.6325 3.785 8.3125 4.125 C7.9825 5.445 7.6525 6.765 7.3125 8.125 C5.9203125 8.310625 5.9203125 8.310625 4.5 8.5 C1.17324765 8.94033082 1.17324765 8.94033082 -1.6875 11.125 C-3.75 11.0625 -3.75 11.0625 -5.6875 10.125 C-6.9375 7.5625 -6.9375 7.5625 -7.6875 5.125 C-6.6975 5.125 -5.7075 5.125 -4.6875 5.125 C-4.3575 4.465 -4.0275 3.805 -3.6875 3.125 C-3.0275 3.455 -2.3675 3.785 -1.6875 4.125 C-1.6875 3.465 -1.6875 2.805 -1.6875 2.125 C-4.6575 2.125 -7.6275 2.125 -10.6875 2.125 C-7.00662647 -0.32891569 -4.24394412 -0.10302759 0 0 Z " fill="#716F70" transform="translate(466.6875,137.875)"/>
<path d="M0 0 C-3.8415976 2.56780471 -7.8139175 2.22688882 -12.25 2.125 C-12.99507813 2.11597656 -13.74015625 2.10695313 -14.5078125 2.09765625 C-16.33868059 2.07418358 -18.16938238 2.03831525 -20 2 C-20 2.66 -20 3.32 -20 4 C-24.10410755 4.05796132 -28.20811016 4.09358313 -32.3125 4.125 C-33.47974609 4.14175781 -34.64699219 4.15851563 -35.84960938 4.17578125 C-37.52700195 4.18544922 -37.52700195 4.18544922 -39.23828125 4.1953125 C-40.7857605 4.21102295 -40.7857605 4.21102295 -42.36450195 4.22705078 C-45 4 -45 4 -48 2 C-44.82094733 1.08014172 -41.85755523 0.81054128 -38.5546875 0.68359375 C-37.48524902 0.64161865 -36.41581055 0.59964355 -35.31396484 0.55639648 C-34.17910645 0.51716064 -33.04424805 0.4779248 -31.875 0.4375 C-30.13984131 0.37381226 -30.13984131 0.37381226 -28.36962891 0.30883789 C-18.90955492 -0.01671652 -9.46429982 -0.11005 0 0 Z " fill="#20170B" transform="translate(474,125)"/>
<path d="M0 0 C0.66 0 1.32 0 2 0 C2.33 0.99 2.66 1.98 3 3 C2.67 3.33 2.34 3.66 2 4 C3.98 4.66 5.96 5.32 8 6 C8 6.33 8 6.66 8 7 C6.02 7.33 4.04 7.66 2 8 C2 8.66 2 9.32 2 10 C-4.95041086 10.26618595 -11.23514355 9.6120509 -18 8 C-14.62309682 4.62309682 -9.77501952 4.70146354 -5.1875 3.87890625 C-1.72637541 3.29878736 -1.72637541 3.29878736 0 0 Z " fill="#B0976F" transform="translate(408,127)"/>
<path d="M0 0 C0.495 1.485 0.495 1.485 1 3 C3.64 2.67 6.28 2.34 9 2 C6.03821227 3.67110042 3.62928808 4.32682752 0.25 4.625 C-0.54921875 4.69976562 -1.3484375 4.77453125 -2.171875 4.8515625 C-2.77515625 4.90054688 -3.3784375 4.94953125 -4 5 C-4 4.34 -4 3.68 -4 3 C-4.87785156 3.16371094 -5.75570312 3.32742187 -6.66015625 3.49609375 C-12.55039333 4.33755619 -18.50207167 4.10459524 -24.4375 4.0625 C-25.64599609 4.05798828 -26.85449219 4.05347656 -28.09960938 4.04882812 C-31.06645789 4.03710145 -34.0332027 4.02068896 -37 4 C-36.67 3.34 -36.34 2.68 -36 2 C-35.3915625 2.02320313 -34.783125 2.04640625 -34.15625 2.0703125 C-27.57532124 2.20580221 -21.30135468 1.6064356 -14.80078125 0.71582031 C-9.80256797 0.04891035 -5.03280538 -0.17974305 0 0 Z " fill="#26150B" transform="translate(131,204)"/>
<path d="M0 0 C2.64 0 5.28 0 8 0 C8 0.66 8 1.32 8 2 C6.35 2.66 4.7 3.32 3 4 C3.33 5.32 3.66 6.64 4 8 C5.32 8 6.64 8 8 8 C8 8.66 8 9.32 8 10 C8.99 10 9.98 10 11 10 C11 10.66 11 11.32 11 12 C9.68 12 8.36 12 7 12 C6.896875 12.94875 6.79375 13.8975 6.6875 14.875 C6 18 6 18 3 20 C2.491217 18.44033782 1.99336531 16.87710759 1.5 15.3125 C1.2215625 14.44238281 0.943125 13.57226562 0.65625 12.67578125 C-0.00349378 9.98575454 -0.10971246 7.75652545 0 5 C0 4.01 0 3.02 0 2 C0 1.34 0 0.68 0 0 Z " fill="#34302F" transform="translate(457,140)"/>
<path d="M0 0 C1 3 1 3 -0.22265625 5.453125 C-2.11410202 8.32844384 -4.02441599 11.18171214 -6 14 C-6.66708984 14.95326172 -6.66708984 14.95326172 -7.34765625 15.92578125 C-15.11023235 25.87232372 -27.27325539 32.71493524 -38 39 C-38 38.01 -38 37.02 -38 36 C-36.59814453 34.79248047 -36.59814453 34.79248047 -34.6328125 33.6171875 C-33.91657715 33.17681152 -33.2003418 32.73643555 -32.46240234 32.28271484 C-31.69105957 31.81816895 -30.9197168 31.35362305 -30.125 30.875 C-17.2236835 22.80599761 -7.20161308 13.5390326 0 0 Z " fill="#615B57" transform="translate(524,184)"/>
<path d="M0 0 C4.56373741 0.85065582 9.17562399 0.89230215 13.80859375 1.05273438 C17.62537216 1.23018109 19.62659517 1.37215719 22.87109375 3.53515625 C19.12280318 5.40930153 14.31726363 4.56571279 10.16796875 4.49609375 C9.42289062 4.48835938 8.6778125 4.480625 7.91015625 4.47265625 C7.23162598 4.46105469 6.5530957 4.44945313 5.85400391 4.4375 C3.74337204 4.54144641 1.90904091 4.99508187 -0.12890625 5.53515625 C-1.71102198 5.60064117 -3.29560706 5.62094006 -4.87890625 5.59765625 C-5.678125 5.58863281 -6.47734375 5.57960938 -7.30078125 5.5703125 C-7.9040625 5.55871094 -8.50734375 5.54710938 -9.12890625 5.53515625 C-8.44140625 3.09765625 -8.44140625 3.09765625 -7.12890625 0.53515625 C-4.47868056 -0.46763185 -2.76507916 -0.60375123 0 0 Z " fill="#492D1C" transform="translate(480.12890625,60.46484375)"/>
<path d="M0 0 C9.24 0 18.48 0 28 0 C28 0.99 28 1.98 28 3 C27.41992188 3.04898438 26.83984375 3.09796875 26.2421875 3.1484375 C22.6757851 3.48977634 19.46748296 3.84085686 16.0625 5 C11.77444326 6.40018179 7.48119287 6.66346773 3 7 C3.5859375 5.046875 3.5859375 5.046875 5 3 C8.0390625 2.390625 8.0390625 2.390625 11.625 2.25 C13.72875 2.1675 15.8325 2.085 18 2 C12.06 1.67 6.12 1.34 0 1 C0 0.67 0 0.34 0 0 Z " fill="#AB946F" transform="translate(431,129)"/>
<path d="M0 0 C4.29 0 8.58 0 13 0 C12.67 0.66 12.34 1.32 12 2 C14.97 2.495 14.97 2.495 18 3 C18 3.99 18 4.98 18 6 C11.73 6 5.46 6 -1 6 C-0.67 4.02 -0.34 2.04 0 0 Z " fill="#D6BE9F" transform="translate(410,126)"/>
<path d="M0 0 C0 4.26571605 -2.54473171 5.99520201 -5.375 8.875 C-8.78944738 12.35011015 -11.38731749 15.32484969 -13 20 C-13.66 20.66 -14.32 21.32 -15 22 C-14.01 22.66 -13.02 23.32 -12 24 C-15 26 -15 26 -19 26 C-18.71788123 24.3733152 -18.42397625 22.74867104 -18.125 21.125 C-17.96257812 20.22007812 -17.80015625 19.31515625 -17.6328125 18.3828125 C-17 16 -17 16 -15 14 C-14.01 14 -13.02 14 -12 14 C-12 13.34 -12 12.68 -12 12 C-10.64453125 10.703125 -10.64453125 10.703125 -8.8125 9.25 C-5.40345948 6.43684868 -2.72721653 3.47100285 0 0 Z " fill="#19130F" transform="translate(506,192)"/>
<path d="M0 0 C0.33 0.99 0.66 1.98 1 3 C5.95 3 10.9 3 16 3 C16.33 3.66 16.66 4.32 17 5 C15.06891037 6.03290841 13.129882 7.05098672 11.1875 8.0625 C10.10855469 8.63097656 9.02960938 9.19945312 7.91796875 9.78515625 C5 11 5 11 2 10 C0.47839986 6.3962102 0 3.94779314 0 0 Z " fill="#120D0A" transform="translate(498,139)"/>
<path d="M0 0 C-0.33 0.99 -0.66 1.98 -1 3 C-2.24716797 2.94779297 -2.24716797 2.94779297 -3.51953125 2.89453125 C-4.60621094 2.86746094 -5.69289063 2.84039062 -6.8125 2.8125 C-7.89144531 2.77769531 -8.97039062 2.74289063 -10.08203125 2.70703125 C-12.99088795 2.74236174 -12.99088795 2.74236174 -14.82421875 4.38671875 C-16.07070806 6.00358924 -16.07070806 6.00358924 -17 8 C-21.455 7.01 -21.455 7.01 -26 6 C-26 5.34 -26 4.68 -26 4 C-5.68879668 -2.13329876 -5.68879668 -2.13329876 0 0 Z " fill="#4A3426" transform="translate(502,74)"/>
<path d="M0 0 C0.99 0 1.98 0 3 0 C3 0.66 3 1.32 3 2 C4.32 2.66 5.64 3.32 7 4 C5.68 4.33 4.36 4.66 3 5 C2.87625 5.7425 2.7525 6.485 2.625 7.25 C2 10 2 10 0.98681641 11.83300781 C-0.21387662 14.46966078 -0.31769949 16.5309846 -0.4140625 19.421875 C-0.45273437 20.44667969 -0.49140625 21.47148437 -0.53125 22.52734375 C-0.57765625 24.12255859 -0.57765625 24.12255859 -0.625 25.75 C-0.66367187 26.82894531 -0.70234375 27.90789062 -0.7421875 29.01953125 C-0.83634631 31.67951775 -0.92197387 34.3394994 -1 37 C-1.33 37 -1.66 37 -2 37 C-2.0294985 33.22918364 -2.04696364 29.45839769 -2.0625 25.6875 C-2.07087891 24.63498047 -2.07925781 23.58246094 -2.08789062 22.49804688 C-2.14392202 4.28784404 -2.14392202 4.28784404 0 0 Z " fill="#190D08" transform="translate(380,131)"/>
<path d="M0 0 C0 0.33 0 0.66 0 1 C-1.0725 1.20625 -2.145 1.4125 -3.25 1.625 C-7.23943779 2.61802742 -7.23943779 2.61802742 -8.6875 6.125 C-11 9 -11 9 -13.41796875 9.53125 C-21.75876525 9.79568741 -29.16413854 7.59649847 -37 5 C-36.67 4.34 -36.34 3.68 -36 3 C-33.80635634 3.52790957 -31.64625025 4.10601506 -29.484375 4.75390625 C-23.77415995 6.44249841 -18.95011334 7.33679887 -13 7 C-12.773125 6.21625 -12.54625 5.4325 -12.3125 4.625 C-11 2 -11 2 -8.75 0.6875 C-5.73422987 -0.06644253 -3.09688972 -0.14404138 0 0 Z " fill="#100600" transform="translate(54,199)"/>
<path d="M0 0 C0.33 0.66 0.66 1.32 1 2 C2.99628664 2.3548954 4.99690671 2.68578929 7 3 C9.375 4.0625 9.375 4.0625 11 5 C11 5.66 11 6.32 11 7 C11.66 7.66 12.32 8.32 13 9 C10.36 9 7.72 9 5 9 C5.33 8.34 5.66 7.68 6 7 C1.38 6.34 -3.24 5.68 -8 5 C-3 1 -3 1 0 0 Z " fill="#5D4738" transform="translate(416,120)"/>
<path d="M0 0 C2.31 0 4.62 0 7 0 C7.33 0.66 7.66 1.32 8 2 C7.34 2 6.68 2 6 2 C6.01160156 2.71027344 6.02320313 3.42054688 6.03515625 4.15234375 C6.04869141 5.53099609 6.04869141 5.53099609 6.0625 6.9375 C6.07410156 7.85402344 6.08570313 8.77054688 6.09765625 9.71484375 C6 12 6 12 5 13 C4.76712992 14.68183948 4.58735834 16.3712416 4.4375 18.0625 C4.31181641 19.44115234 4.31181641 19.44115234 4.18359375 20.84765625 C4.12300781 21.55792969 4.06242188 22.26820313 4 23 C3.67 23 3.34 23 3 23 C3.02356567 22.15236084 3.02356567 22.15236084 3.04760742 21.28759766 C3.10987045 18.73349977 3.14896136 16.17956129 3.1875 13.625 C3.21263672 12.73554688 3.23777344 11.84609375 3.26367188 10.9296875 C3.27333984 10.07890625 3.28300781 9.228125 3.29296875 8.3515625 C3.3086792 7.56604004 3.32438965 6.78051758 3.34057617 5.97119141 C3.22818604 5.32069824 3.1157959 4.67020508 3 4 C2.01 3.34 1.02 2.68 0 2 C0 1.34 0 0.68 0 0 Z " fill="#1F150E" transform="translate(513,147)"/>
<path d="M0 0 C0 0.33 0 0.66 0 1 C-0.71027344 1.17015625 -1.42054688 1.3403125 -2.15234375 1.515625 C-3.07144531 1.75796875 -3.99054687 2.0003125 -4.9375 2.25 C-6.31228516 2.59804687 -6.31228516 2.59804687 -7.71484375 2.953125 C-8.84599609 3.47132813 -8.84599609 3.47132813 -10 4 C-10.75022327 5.95910861 -10.75022327 5.95910861 -11 8 C-11.66 8.66 -12.32 9.32 -13 10 C-13.64767793 12.57061311 -13.64767793 12.57061311 -14 15 C-14.99 15 -15.98 15 -17 15 C-16.49396008 12.83125748 -16.00016187 11.00032373 -15 9 C-15.66 9 -16.32 9 -17 9 C-13.97187726 1.8062871 -7.40531808 -0.7713873 0 0 Z " fill="#70685E" transform="translate(517,145)"/>
<path d="M0 0 C2.64 0.33 5.28 0.66 8 1 C8 5.27709699 7.29379749 6.55930376 5 10 C2.69 9.34 0.38 8.68 -2 8 C-1.67 7.34 -1.34 6.68 -1 6 C0.32 6 1.64 6 3 6 C3 4.68 3 3.36 3 2 C2.01 1.34 1.02 0.68 0 0 Z " fill="#2A1F11" transform="translate(479,131)"/>
<path d="M0 0 C1.32 0 2.64 0 4 0 C4 0.99 4 1.98 4 3 C6.31 3 8.62 3 11 3 C11 3.33 11 3.66 11 4 C8.75411164 4.55846957 6.50306332 5.09621983 4.25 5.625 C2.37054688 6.07746094 2.37054688 6.07746094 0.453125 6.5390625 C-3.00812564 7.00108464 -4.20402902 6.96282811 -7 5 C-5.75 3.5 -5.75 3.5 -4 2 C-2.68 2 -1.36 2 0 2 C0 1.34 0 0.68 0 0 Z " fill="#564C3F" transform="translate(391,128)"/>
<path d="M0 0 C1.18722656 -0.01417969 2.37445313 -0.02835937 3.59765625 -0.04296875 C6.83123014 0.18016676 9.03477846 0.79924187 11.9375 2.1875 C11.9375 2.5175 11.9375 2.8475 11.9375 3.1875 C3.6875 3.1875 -4.5625 3.1875 -13.0625 3.1875 C-13.0625 2.5275 -13.0625 1.8675 -13.0625 1.1875 C-8.66620952 0.34851327 -4.47424091 0.02434299 0 0 Z " fill="#0B0701" transform="translate(467.0625,125.8125)"/>
<path d="M0 0 C0.82693359 0.00451172 1.65386719 0.00902344 2.50585938 0.01367188 C4.52477146 0.02534189 6.54364574 0.04327282 8.5625 0.0625 C4.7209024 2.63030471 0.7485825 2.28938882 -3.6875 2.1875 C-4.43257813 2.17847656 -5.17765625 2.16945313 -5.9453125 2.16015625 C-7.77618059 2.13668358 -9.60688238 2.10081525 -11.4375 2.0625 C-11.4375 2.7225 -11.4375 3.3825 -11.4375 4.0625 C-13.4175 4.0625 -15.3975 4.0625 -17.4375 4.0625 C-17.1075 3.0725 -16.7775 2.0825 -16.4375 1.0625 C-10.91041389 0.12029874 -5.59991648 -0.05866149 0 0 Z " fill="#180F08" transform="translate(465.4375,124.9375)"/>
<path d="M0 0 C1.93681161 -0.08107583 3.8745934 -0.13922475 5.8125 -0.1875 C6.89144531 -0.22230469 7.97039062 -0.25710937 9.08203125 -0.29296875 C12 0 12 0 13.88671875 1.51171875 C14.25410156 2.00285156 14.62148438 2.49398437 15 3 C12.525 4.485 12.525 4.485 10 6 C9.278125 5.505 8.55625 5.01 7.8125 4.5 C4.85151341 2.92080715 3.28746971 2.71821688 0 3 C0 2.01 0 1.02 0 0 Z " fill="#18110C" transform="translate(440,138)"/>
<path d="M0 0 C-0.33 0.99 -0.66 1.98 -1 3 C-4.83724172 3.90413673 -8.37502274 4.10576898 -12.3125 4.0625 C-13.38113281 4.05347656 -14.44976562 4.04445312 -15.55078125 4.03515625 C-16.35902344 4.02355469 -17.16726563 4.01195312 -18 4 C-13.74339803 -0.25660197 -5.75402165 -0.30284324 0 0 Z " fill="#E5CBA4" transform="translate(408,131)"/>
<path d="M0 0 C2.64 0 5.28 0 8 0 C8 0.66 8 1.32 8 2 C6.35 2.66 4.7 3.32 3 4 C3.33 4.99 3.66 5.98 4 7 C3.34 7 2.68 7 2 7 C2 7.66 2 8.32 2 9 C2.99 9 3.98 9 5 9 C5 9.66 5 10.32 5 11 C3.68 11.33 2.36 11.66 1 12 C0.38720231 7.94021527 0 4.10042374 0 0 Z " fill="#3C3A3B" transform="translate(457,140)"/>
<path d="M0 0 C1.84765625 -0.0625 1.84765625 -0.0625 4.66015625 0.125 C5.32015625 0.785 5.98015625 1.445 6.66015625 2.125 C3.65156684 3.6292947 0.87916318 3.178185 -2.46484375 3.125 C-7.85094137 3.06841929 -13.01924851 3.25633139 -18.33984375 4.125 C-16.48521663 1.68916931 -15.51942974 1.15679157 -12.44921875 0.61328125 C-11.340625 0.55527344 -10.23203125 0.49726563 -9.08984375 0.4375 C-7.93355469 0.375625 -6.77726562 0.31375 -5.5859375 0.25 C-3.72347483 0.17828062 -1.86118906 0.09942913 0 0 Z " fill="#493E31" transform="translate(469.33984375,135.875)"/>
<path d="M0 0 C1.29065057 3.8719517 0.22324098 6.44232601 -0.9375 10.1875 C-1.23043945 11.16879883 -1.23043945 11.16879883 -1.52929688 12.16992188 C-2.01182563 13.78227407 -2.50490205 15.39146289 -3 17 C-2.34 17.33 -1.68 17.66 -1 18 C-2.98 18.99 -2.98 18.99 -5 20 C-4.74378181 12.31345427 -3.96313504 6.64783942 0 0 Z " fill="#40342A" transform="translate(490,201)"/>
<path d="M0 0 C6.33393082 -0.34548714 11.10261508 0.70657253 17 3 C17 3.66 17 4.32 17 5 C15.35 5.33 13.7 5.66 12 6 C11.67 5.34 11.34 4.68 11 4 C9.02 4 7.04 4 5 4 C5 3.34 5 2.68 5 2 C3.35 1.67 1.7 1.34 0 1 C0 0.67 0 0.34 0 0 Z " fill="#6F5735" transform="translate(466,130)"/>
<path d="M0 0 C1.09570312 0.19464844 2.19140625 0.38929687 3.3203125 0.58984375 C4.16335938 0.74582031 5.00640625 0.90179688 5.875 1.0625 C4.555 2.7125 3.235 4.3625 1.875 6.0625 C0.885 5.7325 -0.105 5.4025 -1.125 5.0625 C-1.125 4.4025 -1.125 3.7425 -1.125 3.0625 C-2.300625 3.1553125 -2.300625 3.1553125 -3.5 3.25 C-4.36625 3.188125 -5.2325 3.12625 -6.125 3.0625 C-6.785 2.0725 -7.445 1.0825 -8.125 0.0625 C-5.2144446 -1.3927777 -3.16650948 -0.57266661 0 0 Z " fill="#45382D" transform="translate(404.125,124.9375)"/>
<path d="M0 0 C0.66 0.33 1.32 0.66 2 1 C0.68 2.65 -0.64 4.3 -2 6 C-2.68449219 5.68289062 -3.36898437 5.36578125 -4.07421875 5.0390625 C-7.39750379 3.85883043 -10.29754535 3.58802755 -13.8125 3.375 C-14.97394531 3.30023438 -16.13539063 3.22546875 -17.33203125 3.1484375 C-18.21246094 3.09945312 -19.09289062 3.05046875 -20 3 C-20 2.67 -20 2.34 -20 2 C-17.77100213 1.83109082 -15.54179338 1.66496313 -13.3125 1.5 C-11.45044922 1.36078125 -11.45044922 1.36078125 -9.55078125 1.21875 C-7.40550201 1.08658758 -5.2546899 1.00804653 -3.10546875 1.03125 C-1.0124829 1.24466122 -1.0124829 1.24466122 0 0 Z " fill="#1E0F06" transform="translate(230,202)"/>
<path d="M0 0 C0.66 0.33 1.32 0.66 2 1 C-2.56928543 7.16853533 -7.44338176 12.70317171 -13 18 C-13.33 17.01 -13.66 16.02 -14 15 C-13.34 15 -12.68 15 -12 15 C-12 14.34 -12 13.68 -12 13 C-11.319375 12.484375 -10.63875 11.96875 -9.9375 11.4375 C-5.94614039 8.12552075 -3.07703908 4.15001237 0 0 Z " fill="#181513" transform="translate(519,190)"/>
<path d="M0 0 C0.66 0 1.32 0 2 0 C2.10823773 2.24893954 2.18569645 4.49937575 2.25 6.75 C2.29640625 8.00296875 2.3428125 9.2559375 2.390625 10.546875 C2 14 2 14 -2 18 C-1.34 12.06 -0.68 6.12 0 0 Z " fill="#7F695B" transform="translate(432,70)"/>
<path d="M0 0 C2.91517292 1.07401108 4.77810176 1.77810176 7 4 C8.14820766 6.63412345 9.09116374 9.27349121 10 12 C5.22624814 10.12459748 2.7972702 6.79385795 0.75 2.1875 C0.5025 1.465625 0.255 0.74375 0 0 Z " fill="#927A6B" transform="translate(422,44)"/>
<path d="M0 0 C-3.64116773 3.33773709 -7.28607242 3.97864902 -12 5 C-11.3125 2.5625 -11.3125 2.5625 -10 0 C-6.43000326 -1.35080958 -3.64229838 -0.93659101 0 0 Z " fill="#5E3D27" transform="translate(483,61)"/>
<path d="M0 0 C0.66 0.33 1.32 0.66 2 1 C-3.09520525 5.06532334 -8.08422624 8.25339075 -14 11 C-12.49193111 6.74913081 -9.81856735 5.3675715 -6 3.1875 C-4.9275 2.56230469 -3.855 1.93710938 -2.75 1.29296875 C-1.38875 0.65294922 -1.38875 0.65294922 0 0 Z " fill="#ACA9A5" transform="translate(499,212)"/>
<path d="M0 0 C3.96 0 7.92 0 12 0 C12 0.66 12 1.32 12 2 C12.66 2.33 13.32 2.66 14 3 C10.04 3 6.08 3 2 3 C2 2.34 2 1.68 2 1 C1.34 0.67 0.68 0.34 0 0 Z " fill="#D3B99D" transform="translate(408,134)"/>
<path d="M0 0 C3 2 3 2 3.51171875 4.1640625 C3.56972656 4.97617188 3.62773437 5.78828125 3.6875 6.625 C3.75324219 7.44226563 3.81898438 8.25953125 3.88671875 9.1015625 C3.92410156 9.72804687 3.96148437 10.35453125 4 11 C3.01 11.33 2.02 11.66 1 12 C1 11.34 1 10.68 1 10 C0.34 10 -0.32 10 -1 10 C-1.02689216 8.52093108 -1.04634621 7.04172517 -1.0625 5.5625 C-1.07410156 4.73878906 -1.08570313 3.91507813 -1.09765625 3.06640625 C-1 1 -1 1 0 0 Z " fill="#2A2726" transform="translate(455,143)"/>
<path d="M0 0 C0.66 0 1.32 0 2 0 C2 0.99 2 1.98 2 3 C3.32 3.33 4.64 3.66 6 4 C6 4.66 6 5.32 6 6 C6.66 6 7.32 6 8 6 C8.66 7.65 9.32 9.3 10 11 C2.09768638 6.8251928 2.09768638 6.8251928 0 3 C0 2.01 0 1.02 0 0 Z " fill="#937968" transform="translate(386,8)"/>
<path d="M0 0 C0.78890625 0.12761719 1.5778125 0.25523438 2.390625 0.38671875 C3.18984375 0.50660156 3.9890625 0.62648437 4.8125 0.75 C5.41578125 0.85699219 6.0190625 0.96398438 6.640625 1.07421875 C5.650625 2.55921875 5.650625 2.55921875 4.640625 4.07421875 C1.010625 3.74421875 -2.619375 3.41421875 -6.359375 3.07421875 C-2.359375 0.07421875 -2.359375 0.07421875 0 0 Z " fill="#63432E" transform="translate(505.359375,57.92578125)"/>
<path d="M0 0 C3 1 3 1 4 2 C5.66014616 2.36442233 7.32706064 2.69972883 9 3 C9 3.66 9 4.32 9 5 C5.37 4.67 1.74 4.34 -2 4 C-1.34 2.68 -0.68 1.36 0 0 Z " fill="#8E734B" transform="translate(469,131)"/>
<path d="M0 0 C1.485 0.99 1.485 0.99 3 2 C3 2.66 3 3.32 3 4 C3.99 4.33 4.98 4.66 6 5 C6 5.99 6 6.98 6 8 C6.99 7.67 7.98 7.34 9 7 C9.33 8.32 9.66 9.64 10 11 C7.5625 10.1875 7.5625 10.1875 5 9 C4.67 8.01 4.34 7.02 4 6 C3.34 6 2.68 6 2 6 C1.34 4.02 0.68 2.04 0 0 Z " fill="#806C5F" transform="translate(416,34)"/>
<path d="M0 0 C3.63 0 7.26 0 11 0 C11 0.99 11 1.98 11 3 C8.83032311 3.95465783 7.43671207 4.14401212 5.17578125 3.3984375 C3.4315257 2.64129615 1.71372869 1.82390802 0 1 C0 0.67 0 0.34 0 0 Z " fill="#CCAF80" transform="translate(413,131)"/>
<path d="M0 0 C3.63 0 7.26 0 11 0 C11 0.66 11 1.32 11 2 C11.66 2.66 12.32 3.32 13 4 C10.36 4 7.72 4 5 4 C5.33 3.34 5.66 2.68 6 2 C3.03 1.505 3.03 1.505 0 1 C0 0.67 0 0.34 0 0 Z " fill="#645952" transform="translate(416,125)"/>
<path d="M0 0 C3.63 0 7.26 0 11 0 C10.01 0.495 10.01 0.495 9 1 C9 1.66 9 2.32 9 3 C2.25 3.125 2.25 3.125 0 2 C0 1.34 0 0.68 0 0 Z " fill="#E8E2DE" transform="translate(410,126)"/>
<path d="M0 0 C0.66 0 1.32 0 2 0 C2.33 1.32 2.66 2.64 3 4 C0.75 5.625 0.75 5.625 -2 7 C-4.3125 6.1875 -4.3125 6.1875 -6 5 C-5.01 5 -4.02 5 -3 5 C-3 4.34 -3 3.68 -3 3 C-2.34 3 -1.68 3 -1 3 C-0.67 2.01 -0.34 1.02 0 0 Z " fill="#2D1A10" transform="translate(509,208)"/>
<path d="M0 0 C0.7425 0.0825 1.485 0.165 2.25 0.25 C2.58 1.57 2.91 2.89 3.25 4.25 C-0.05 4.25 -3.35 4.25 -6.75 4.25 C-3.42692308 0.31153846 -3.42692308 0.31153846 0 0 Z " fill="#63432E" transform="translate(492.75,55.75)"/>
<path d="M0 0 C2.82858266 3.36736031 4.4998253 6.87451958 6 11 C5.67 11.99 5.34 12.98 5 14 C4.15675328 12.421924 3.32576082 10.8372958 2.5 9.25 C2.0359375 8.36828125 1.571875 7.4865625 1.09375 6.578125 C0 4 0 4 0 0 Z " fill="#8E7362" transform="translate(433,58)"/>
<path d="M0 0 C1.32 0 2.64 0 4 0 C4 0.99 4 1.98 4 3 C4.66 3.33 5.32 3.66 6 4 C4.68 4 3.36 4 2 4 C1.01 5.485 1.01 5.485 0 7 C-0.66 5.68 -1.32 4.36 -2 3 C-1.34 2.01 -0.68 1.02 0 0 Z " fill="#353130" transform="translate(473,147)"/>
<path d="M0 0 C0.99 0.33 1.98 0.66 3 1 C3.6875 3.0625 3.6875 3.0625 4 5 C2.02 5.99 0.04 6.98 -2 8 C-2 6.68 -2 5.36 -2 4 C-0.68 4 0.64 4 2 4 C2 3.34 2 2.68 2 2 C1.01 1.67 0.02 1.34 -1 1 C-0.67 0.67 -0.34 0.34 0 0 Z " fill="#454242" transform="translate(466,148)"/>
<path d="M0 0 C2.31 0 4.62 0 7 0 C7.33 0.66 7.66 1.32 8 2 C7.34 2 6.68 2 6 2 C5.67 3.32 5.34 4.64 5 6 C5 5.01 5 4.02 5 3 C3.35 2.67 1.7 2.34 0 2 C0 1.34 0 0.68 0 0 Z " fill="#16100B" transform="translate(513,147)"/>
<path d="M0 0 C1.65 0 3.3 0 5 0 C5.33 0.66 5.66 1.32 6 2 C5.34 2 4.68 2 4 2 C4 2.99 4 3.98 4 5 C4.66 5.33 5.32 5.66 6 6 C4.35 6 2.7 6 1 6 C1.33 4.68 1.66 3.36 2 2 C1.34 2 0.68 2 0 2 C0 1.34 0 0.68 0 0 Z " fill="#A7906C" transform="translate(459,130)"/>
<path d="M0 0 C0.33 1.32 0.66 2.64 1 4 C0.360625 4.12375 -0.27875 4.2475 -0.9375 4.375 C-1.9584375 4.684375 -1.9584375 4.684375 -3 5 C-3.33 5.66 -3.66 6.32 -4 7 C-4.66 5.68 -5.32 4.36 -6 3 C-5.01 3 -4.02 3 -3 3 C-2.67 2.34 -2.34 1.68 -2 1 C-1.34 1.33 -0.68 1.66 0 2 C0 1.34 0 0.68 0 0 Z " fill="#565557" transform="translate(465,140)"/>
<path d="M0 0 C2.64 0 5.28 0 8 0 C8 0.99 8 1.98 8 3 C5.6568787 2.74438677 3.32156597 2.40729228 1 2 C0.67 1.34 0.34 0.68 0 0 Z " fill="#070501" transform="translate(480,128)"/>
<path d="M0 0 C0.66 0 1.32 0 2 0 C2.33 0.99 2.66 1.98 3 3 C2.67 3.33 2.34 3.66 2 4 C2.99 4.66 3.98 5.32 5 6 C3.35 6 1.7 6 0 6 C0 5.34 0 4.68 0 4 C-0.66 3.67 -1.32 3.34 -2 3 C-1.34 2.01 -0.68 1.02 0 0 Z " fill="#A8967C" transform="translate(408,127)"/>
<path d="M0 0 C0.33 0.99 0.66 1.98 1 3 C0.01 3.33 -0.98 3.66 -2 4 C-2 4.66 -2 5.32 -2 6 C-2.99 6 -3.98 6 -5 6 C-5.33 5.01 -5.66 4.02 -6 3 C-5.34 2.67 -4.68 2.34 -4 2 C-3.01 2.33 -2.02 2.66 -1 3 C-0.67 2.01 -0.34 1.02 0 0 Z " fill="#414040" transform="translate(475,143)"/>
<path d="M0 0 C0.93423645 3.01031744 1.04449911 3.86650268 0 7 C0.66 7.33 1.32 7.66 2 8 C0.02 8.99 0.02 8.99 -2 10 C-1.125 2.25 -1.125 2.25 0 0 Z " fill="#574F47" transform="translate(487,211)"/>
<path d="M0 0 C0.33 0.66 0.66 1.32 1 2 C-0.25 3.5625 -0.25 3.5625 -2 5 C-4.1875 4.6875 -4.1875 4.6875 -6 4 C-6 3.34 -6 2.68 -6 2 C-4.02 1.34 -2.04 0.68 0 0 Z " fill="#151111" transform="translate(485,136)"/>
<path d="M0 0 C0.33 0.66 0.66 1.32 1 2 C1.66 2 2.32 2 3 2 C3.33 1.34 3.66 0.68 4 0 C4.1875 2.375 4.1875 2.375 4 5 C3.01 5.66 2.02 6.32 1 7 C0.67 4.69 0.34 2.38 0 0 Z " fill="#543E30" transform="translate(499,131)"/>
<path d="M0 0 C-0.33 0.66 -0.66 1.32 -1 2 C-4.0625 2.625 -4.0625 2.625 -7 3 C-7 2.01 -7 1.02 -7 0 C-4.3333581 -1.33332095 -2.83319697 -0.67102033 0 0 Z " fill="#AF966E" transform="translate(455,133)"/>
<path d="M0 0 C1.32 0 2.64 0 4 0 C4.33 2.64 4.66 5.28 5 8 C2.98863724 5.44008376 1.37154504 2.95409701 0 0 Z " fill="#9D7C66" transform="translate(380,0)"/>
</svg>
